<?xml version="1.0" encoding="iso-8859-1"?>
<!-- Generator: Adobe Illustrator 19.0.0, SVG Export Plug-In . SVG Version: 6.00 Build 0)  -->
<svg version="1.1" id="Layer_1" xmlns="http://www.w3.org/2000/svg" xmlns:xlink="http://www.w3.org/1999/xlink" x="0px" y="0px"
	 viewBox="0 0 512 512" style="enable-background:new 0 0 512 512;" xml:space="preserve">
<path style="fill:#B36E44;" d="M361.275,421.642V316.327c0-33.946-27.508-61.464-61.44-61.464h-52.009
	c-5.804,0-10.51-4.707-10.51-10.514V118.258h-35.57v154.089c0,12.633,10.237,22.874,22.865,22.874h43.155
	c6.444,0,11.667,5.226,11.667,11.672v114.751h81.841V421.642z"/>
<path style="fill:#8C5635;" d="M294.265,421.642V304.625c0-13.824-11.207-25.031-25.031-25.031h-43.691
	c-3.956,0-7.163-3.207-7.163-7.163V118.257h-16.634v154.089c0,12.633,10.241,22.874,22.874,22.874h43.147
	c6.444,0,11.667,5.223,11.667,11.667v114.755H294.265z"/>
<path style="fill:#A9CF54;" d="M358.313,97.053v2.437c0,0.377,0,0.766-0.01,1.143v0.108c-0.668,25.75-21.601,46.691-47.352,47.359
	h-0.097c-7.276-0.183-14.131-2.049-20.19-5.219c-6.748,6.286-15.78,10.147-25.74,10.147c-9.658,0-18.454-3.623-25.126-9.586
	c-6.112,2.998-13,4.669-20.265,4.669c-7.545,0-14.67-1.8-20.954-5.003c-6.716,6.158-15.662,9.92-25.492,9.92
	c-9.776,0-18.659-3.72-25.363-9.802c-5.896,2.965-12.515,4.701-19.521,4.874h-0.097c-25.74-0.669-46.672-21.61-47.341-47.359v-0.108
	c-0.01-0.377-0.01-0.766-0.01-1.143v-2.437c0-46.345,37.91-84.27,84.238-84.27h109.072
	C320.404,12.783,358.313,50.708,358.313,97.053z"/>
<path style="fill:#92B83D;" d="M98.045,101.193v-0.108c-0.01-0.377-0.01-0.766-0.01-1.143v-2.437c0-46.345,37.91-84.27,84.238-84.27
	h100.489c-2.86-0.297-5.761-0.451-8.696-0.451H164.994c-46.328,0-84.238,37.925-84.238,84.27v2.437c0,0.377,0,0.766,0.011,1.143
	v0.108c0.669,25.75,21.601,46.691,47.341,47.359h0.097c2.547-0.063,5.042-0.338,7.471-0.798
	C114.572,142.38,98.627,123.612,98.045,101.193z"/>
<path style="fill:#B36E44;" d="M324.626,281.02h61.178c3.571,0,6.467-2.896,6.467-6.47v-84.333h31.619v86.705
	c0,20.923-16.956,37.885-37.87,37.885H337.92L324.626,281.02z"/>
<path style="fill:#8C5635;" d="M392.27,190.217v84.333c0,3.574-2.896,6.47-6.47,6.47h-61.175l0,0
	c3.394,8.627,11.721,14.298,20.99,14.298h40.317c12.216,0,22.119-9.902,22.119-22.119v-82.982L392.27,190.217L392.27,190.217z"/>
<path style="fill:#A9CF54;" d="M500.223,195.847v1.619c0,0.251,0,0.509-0.007,0.76v0.072c-0.444,17.102-14.346,31.009-31.448,31.454
	h-0.065c-4.833-0.122-9.385-1.36-13.408-3.466c-4.482,4.175-10.48,6.739-17.096,6.739c-6.415,0-12.256-2.406-16.687-6.367
	c-4.059,1.991-8.634,3.101-13.458,3.101c-5.011,0-9.743-1.196-13.917-3.323c-4.46,4.09-10.402,6.589-16.93,6.589
	c-6.493,0-12.391-2.471-16.845-6.51c-3.916,1.97-8.311,3.122-12.965,3.237h-0.065c-17.096-0.444-30.998-14.352-31.442-31.454v-0.072
	c-0.007-0.251-0.007-0.509-0.007-0.76v-1.619c0-30.781,25.178-55.968,55.946-55.968h72.44
	C475.045,139.88,500.223,165.068,500.223,195.847z"/>
<path style="fill:#92B83D;" d="M330.172,198.297v-0.072c-0.007-0.251-0.007-0.509-0.007-0.759v-1.619
	c0-30.781,25.178-55.968,55.946-55.968h-14.282c-30.769,0-55.946,25.187-55.946,55.968v1.619c0,0.251,0,0.509,0.007,0.759v0.072
	c0.444,17.102,14.346,31.009,31.442,31.454h0.064c2.436-0.06,4.798-0.411,7.06-1.008
	C340.794,225.224,330.552,212.935,330.172,198.297z"/>
<path style="fill:#B36E44;" d="M298.144,326.751H165.953c-14.363,0-26.006-11.649-26.006-26.017v-64.786h-31.619v67.482
	c0,31.54,25.558,57.108,57.086,57.108h132.73V326.751z"/>
<path style="fill:#8C5635;" d="M179.267,347.487c-43.094,0-56.279-20.884-56.279-59.01v-53.47l-14.659,0.94v67.482
	c0,31.54,25.558,57.108,57.086,57.108h128.851c0-7.134-5.784-12.917-12.917-12.917L179.267,347.487z"/>
<path style="fill:#A9CF54;" d="M212.924,242.419v1.619c0,0.251,0,0.509-0.007,0.76v0.072c-0.444,17.102-14.346,31.009-31.448,31.454
	h-0.065c-4.833-0.122-9.385-1.36-13.408-3.466c-4.482,4.175-10.48,6.739-17.096,6.739c-6.415,0-12.256-2.406-16.687-6.367
	c-4.059,1.991-8.634,3.101-13.458,3.101c-5.011,0-9.743-1.196-13.917-3.323c-4.46,4.09-10.402,6.589-16.93,6.589
	c-6.493,0-12.391-2.471-16.845-6.51c-3.916,1.97-8.311,3.122-12.965,3.237h-0.065c-17.096-0.444-30.998-14.352-31.442-31.454v-0.072
	c-0.007-0.251-0.007-0.509-0.007-0.76v-1.619c0-30.781,25.178-55.968,55.946-55.968h72.44
	C187.746,186.452,212.924,211.639,212.924,242.419z"/>
<path style="fill:#92B83D;" d="M42.963,244.869v-0.072c-0.007-0.251-0.007-0.509-0.007-0.759v-1.619
	c0-30.781,25.178-55.968,55.946-55.968H84.53c-30.768,0-55.946,25.187-55.946,55.968v1.619c0,0.251,0,0.509,0.007,0.759v0.072
	c0.444,17.102,14.346,31.009,31.442,31.454h0.064c2.451-0.061,4.827-0.416,7.103-1.02C53.563,271.767,43.343,259.489,42.963,244.869
	z"/>
<path style="fill:#F75534;" d="M512,405.289v0.01c0,35.721-28.964,64.684-64.684,64.684H64.684C28.964,469.984,0,441.021,0,405.299
	v-0.01c0-2.382,1.93-4.311,4.311-4.311h503.376C510.07,400.977,512,402.906,512,405.289z"/>
<path style="fill:#BD391E;" d="M94.542,469.984H64.684C28.964,469.984,0,441.021,0,405.299v-0.01c0-2.382,1.93-4.311,4.311-4.311
	h17.828c-2.382,0-4.311,1.929-4.311,4.311v0.01C17.828,441.021,58.8,469.984,94.542,469.984z"/>
<path style="fill:#362928;" d="M444.341,469.984v23.919c0,2.932-2.382,5.314-5.314,5.314H72.974c-2.932,0-5.314-2.382-5.314-5.314
	v-23.919H444.341z"/>
<path style="fill:#2E2322;" d="M90.856,499.217H72.974c-2.932,0-5.314-2.382-5.314-5.314v-23.919h19.402v23.919
	C87.062,496.834,88.765,499.217,90.856,499.217z"/>
<g>
	<circle style="fill:#627D2A;" cx="212.929" cy="51.891" r="8.084"/>
	<circle style="fill:#627D2A;" cx="153.642" cy="68.065" r="8.084"/>
	<circle style="fill:#627D2A;" cx="244.893" cy="87.333" r="8.084"/>
	<circle style="fill:#627D2A;" cx="289.593" cy="64.494" r="8.084"/>
	<circle style="fill:#627D2A;" cx="448.564" cy="187.601" r="8.084"/>
	<circle style="fill:#627D2A;" cx="405.483" cy="166.567" r="8.084"/>
	<circle style="fill:#627D2A;" cx="369.633" cy="190.83" r="8.084"/>
	<circle style="fill:#627D2A;" cx="76.894" cy="233.023" r="8.084"/>
	<circle style="fill:#627D2A;" cx="164.561" cy="233.023" r="8.084"/>
	<circle style="fill:#627D2A;" cx="120.748" cy="216.074" r="8.084"/>
</g>
<g>
</g>
<g>
</g>
<g>
</g>
<g>
</g>
<g>
</g>
<g>
</g>
<g>
</g>
<g>
</g>
<g>
</g>
<g>
</g>
<g>
</g>
<g>
</g>
<g>
</g>
<g>
</g>
<g>
</g>
</svg>
